<mxfile host="65bd71144e">
    <diagram id="SMTIgAJVby-Bm93oSeHa" name="Page-1">
        <mxGraphModel dx="1130" dy="490" grid="1" gridSize="10" guides="1" tooltips="1" connect="1" arrows="1" fold="1" page="1" pageScale="1" pageWidth="850" pageHeight="1100" math="0" shadow="0">
            <root>
                <mxCell id="0"/>
                <mxCell id="1" parent="0"/>
                <mxCell id="6" value="" style="edgeStyle=none;html=1;shadow=0;fillColor=#b1ddf0;strokeColor=#10739e;" parent="1" source="2" target="3" edge="1">
                    <mxGeometry relative="1" as="geometry"/>
                </mxCell>
                <mxCell id="2" value="&lt;font color=&quot;#000000&quot;&gt;code&amp;nbsp;&lt;/font&gt;" style="rounded=1;whiteSpace=wrap;html=1;fillColor=#dae8fc;gradientColor=#7ea6e0;strokeColor=#6c8ebf;" parent="1" vertex="1">
                    <mxGeometry x="80" y="80" width="120" height="60" as="geometry"/>
                </mxCell>
                <mxCell id="7" value="" style="edgeStyle=none;html=1;fillColor=#b1ddf0;strokeColor=#10739e;" parent="1" source="3" target="4" edge="1">
                    <mxGeometry relative="1" as="geometry"/>
                </mxCell>
                <mxCell id="3" value="&lt;font color=&quot;#000000&quot;&gt;parsing&lt;/font&gt;" style="rounded=1;whiteSpace=wrap;html=1;fillColor=#e6d0de;gradientColor=#d5739d;strokeColor=#996185;" parent="1" vertex="1">
                    <mxGeometry x="80" y="180" width="120" height="60" as="geometry"/>
                </mxCell>
                <mxCell id="8" value="" style="edgeStyle=none;html=1;fillColor=#b1ddf0;strokeColor=#10739e;" parent="1" source="4" target="5" edge="1">
                    <mxGeometry relative="1" as="geometry"/>
                </mxCell>
                <mxCell id="4" value="&lt;font color=&quot;#000000&quot;&gt;compilation&lt;/font&gt;" style="rounded=1;whiteSpace=wrap;html=1;fillColor=#fff2cc;gradientColor=#ffd966;strokeColor=#d6b656;" parent="1" vertex="1">
                    <mxGeometry x="80" y="280" width="120" height="60" as="geometry"/>
                </mxCell>
                <mxCell id="5" value="&lt;font color=&quot;#000000&quot;&gt;execution&lt;/font&gt;" style="rounded=1;whiteSpace=wrap;html=1;fillColor=#d5e8d4;gradientColor=#97d077;strokeColor=#82b366;" parent="1" vertex="1">
                    <mxGeometry x="80" y="380" width="120" height="60" as="geometry"/>
                </mxCell>
                <mxCell id="9" value="" style="swimlane;startSize=0;fillColor=#0050ef;fontColor=#ffffff;strokeColor=#001DBC;" parent="1" vertex="1">
                    <mxGeometry x="40" y="40" width="680" height="480" as="geometry"/>
                </mxCell>
                <mxCell id="12" value="JIT Compilation" style="text;html=1;align=center;verticalAlign=middle;resizable=0;points=[];autosize=1;strokeColor=none;fillColor=none;strokeWidth=1;fontStyle=1;fontSize=15;fontColor=#B26CF7;" parent="9" vertex="1">
                    <mxGeometry x="430" y="10" width="140" height="30" as="geometry"/>
                </mxCell>
                <mxCell id="13" value="&lt;font color=&quot;#000000&quot;&gt;Interpreter&lt;/font&gt;" style="rounded=0;whiteSpace=wrap;html=1;strokeWidth=1;fontSize=15;fillColor=#cdeb8b;strokeColor=#36393d;" parent="9" vertex="1">
                    <mxGeometry x="380" y="80" width="120" height="40" as="geometry"/>
                </mxCell>
                <mxCell id="36" style="edgeStyle=none;html=1;exitX=0.9;exitY=1.025;exitDx=0;exitDy=0;fontColor=#000000;exitPerimeter=0;fillColor=#1ba1e2;strokeColor=#006EAF;" parent="9" source="17" edge="1">
                    <mxGeometry relative="1" as="geometry">
                        <mxPoint x="488" y="200" as="sourcePoint"/>
                        <mxPoint x="488" y="270" as="targetPoint"/>
                    </mxGeometry>
                </mxCell>
                <mxCell id="17" value="&lt;font color=&quot;#000000&quot;&gt;Compiler&lt;/font&gt;" style="rounded=0;whiteSpace=wrap;html=1;strokeWidth=1;fontSize=15;fillColor=#ffff88;strokeColor=#36393d;" parent="9" vertex="1">
                    <mxGeometry x="380" y="160" width="120" height="40" as="geometry"/>
                </mxCell>
                <mxCell id="32" style="edgeStyle=none;html=1;exitX=0.5;exitY=0;exitDx=0;exitDy=0;entryX=0.85;entryY=0.988;entryDx=0;entryDy=0;entryPerimeter=0;fontColor=#000000;fillColor=#1ba1e2;strokeColor=#006EAF;" parent="9" edge="1">
                    <mxGeometry relative="1" as="geometry">
                        <mxPoint x="419" y="380" as="sourcePoint"/>
                        <mxPoint x="418" y="349.03999999999996" as="targetPoint"/>
                    </mxGeometry>
                </mxCell>
                <mxCell id="18" value="Memory heap" style="rounded=0;whiteSpace=wrap;html=1;strokeWidth=1;fontSize=15;fillColor=#008a00;fontColor=#ffffff;strokeColor=#005700;gradientColor=#FFFF99;" parent="9" vertex="1">
                    <mxGeometry x="360" y="380" width="140" height="60" as="geometry"/>
                </mxCell>
                <mxCell id="20" value="" style="rounded=0;whiteSpace=wrap;html=1;strokeWidth=1;fontSize=15;fillColor=#647687;fontColor=#ffffff;strokeColor=#314354;" parent="9" vertex="1">
                    <mxGeometry x="544" y="240" width="80" height="200" as="geometry"/>
                </mxCell>
                <mxCell id="22" value="&lt;font color=&quot;#000000&quot;&gt;GCE&lt;/font&gt;" style="rounded=1;whiteSpace=wrap;html=1;strokeWidth=1;fontSize=15;fontColor=#333333;fillColor=#f5f5f5;strokeColor=#666666;gradientColor=#9999FF;" parent="9" vertex="1">
                    <mxGeometry x="546" y="376" width="76" height="60" as="geometry"/>
                </mxCell>
                <mxCell id="23" value="" style="rounded=1;whiteSpace=wrap;html=1;strokeWidth=1;fontSize=15;fontColor=#333333;fillColor=#f5f5f5;strokeColor=#666666;gradientColor=#9999FF;" parent="9" vertex="1">
                    <mxGeometry x="546" y="309" width="76" height="60" as="geometry"/>
                </mxCell>
                <mxCell id="28" value="" style="endArrow=classic;html=1;entryX=0.25;entryY=1;entryDx=0;entryDy=0;exitX=0.25;exitY=0;exitDx=0;exitDy=0;fillColor=#1ba1e2;strokeColor=#006EAF;" parent="9" source="17" target="13" edge="1">
                    <mxGeometry width="50" height="50" relative="1" as="geometry">
                        <mxPoint x="415" y="160" as="sourcePoint"/>
                        <mxPoint x="465" y="110" as="targetPoint"/>
                    </mxGeometry>
                </mxCell>
                <mxCell id="29" value="" style="endArrow=classic;html=1;entryX=0.75;entryY=0;entryDx=0;entryDy=0;exitX=0.75;exitY=1;exitDx=0;exitDy=0;fillColor=#1ba1e2;strokeColor=#006EAF;" parent="9" source="13" target="17" edge="1">
                    <mxGeometry width="50" height="50" relative="1" as="geometry">
                        <mxPoint x="450" y="140" as="sourcePoint"/>
                        <mxPoint x="500" y="90" as="targetPoint"/>
                    </mxGeometry>
                </mxCell>
                <mxCell id="31" style="edgeStyle=none;html=1;exitX=0.25;exitY=1;exitDx=0;exitDy=0;entryX=0.15;entryY=0.017;entryDx=0;entryDy=0;entryPerimeter=0;fontColor=#000000;fillColor=#1ba1e2;strokeColor=#006EAF;" parent="9" source="30" target="18" edge="1">
                    <mxGeometry relative="1" as="geometry"/>
                </mxCell>
                <mxCell id="30" value="&lt;font color=&quot;#000000&quot;&gt;Garbage collection&lt;/font&gt;" style="whiteSpace=wrap;html=1;aspect=fixed;fillColor=#0050ef;fontColor=#ffffff;strokeColor=#001DBC;gradientColor=default;" parent="9" vertex="1">
                    <mxGeometry x="361" y="270" width="80" height="80" as="geometry"/>
                </mxCell>
                <mxCell id="34" style="edgeStyle=none;html=1;exitX=0.25;exitY=0;exitDx=0;exitDy=0;entryX=0.75;entryY=1;entryDx=0;entryDy=0;fontColor=#000000;fillColor=#1ba1e2;strokeColor=#006EAF;" parent="9" edge="1">
                    <mxGeometry relative="1" as="geometry">
                        <mxPoint x="461" y="270" as="sourcePoint"/>
                        <mxPoint x="461" y="200" as="targetPoint"/>
                    </mxGeometry>
                </mxCell>
                <mxCell id="33" value="Optimizer" style="whiteSpace=wrap;html=1;aspect=fixed;fontColor=#000000;gradientColor=default;" parent="9" vertex="1">
                    <mxGeometry x="450" y="270" width="80" height="80" as="geometry"/>
                </mxCell>
                <mxCell id="11" value="" style="endArrow=none;dashed=1;html=1;dashPattern=1 3;strokeWidth=2;entryX=0.5;entryY=0;entryDx=0;entryDy=0;exitX=0.5;exitY=1;exitDx=0;exitDy=0;" parent="1" source="9" target="9" edge="1">
                    <mxGeometry width="50" height="50" relative="1" as="geometry">
                        <mxPoint x="400" y="280" as="sourcePoint"/>
                        <mxPoint x="450" y="230" as="targetPoint"/>
                    </mxGeometry>
                </mxCell>
                <mxCell id="21" value="Call stack" style="text;html=1;align=center;verticalAlign=middle;resizable=0;points=[];autosize=1;strokeColor=none;fillColor=none;fontSize=15;fontColor=#CA49FA;" parent="1" vertex="1">
                    <mxGeometry x="577" y="225" width="90" height="30" as="geometry"/>
                </mxCell>
                <mxCell id="24" value="&lt;font color=&quot;#ca49fa&quot;&gt;JS Engine&lt;/font&gt;" style="text;html=1;align=center;verticalAlign=middle;resizable=0;points=[];autosize=1;strokeColor=#666666;fillColor=#f5f5f5;fontSize=15;fontColor=#333333;fontStyle=1;labelBackgroundColor=none;gradientColor=#CCCCCC;" parent="1" vertex="1">
                    <mxGeometry x="330" y="5" width="100" height="30" as="geometry"/>
                </mxCell>
                <mxCell id="38" value="" style="edgeStyle=none;html=1;fontColor=#000000;fillColor=#1ba1e2;strokeColor=#006EAF;" parent="1" source="25" target="13" edge="1">
                    <mxGeometry relative="1" as="geometry"/>
                </mxCell>
                <mxCell id="25" value="&lt;i&gt;&lt;font color=&quot;#ffff00&quot;&gt;Abstract syntax tree (AST)&lt;/font&gt;&lt;/i&gt;" style="text;html=1;align=center;verticalAlign=middle;resizable=0;points=[];autosize=1;strokeColor=none;fillColor=none;" parent="1" vertex="1">
                    <mxGeometry x="144" y="145" width="160" height="30" as="geometry"/>
                </mxCell>
                <mxCell id="39" style="edgeStyle=none;html=1;exitX=0;exitY=1;exitDx=0;exitDy=0;entryX=1;entryY=0;entryDx=0;entryDy=0;fontColor=#000000;fillColor=#1ba1e2;strokeColor=#006EAF;" parent="1" source="13" target="5" edge="1">
                    <mxGeometry relative="1" as="geometry"/>
                </mxCell>
                <mxCell id="40" style="edgeStyle=none;html=1;exitX=0;exitY=0.5;exitDx=0;exitDy=0;entryX=1;entryY=0.5;entryDx=0;entryDy=0;fontColor=#000000;fillColor=#1ba1e2;strokeColor=#006EAF;" parent="1" source="17" target="5" edge="1">
                    <mxGeometry relative="1" as="geometry"/>
                </mxCell>
            </root>
        </mxGraphModel>
    </diagram>
</mxfile>